# xmcd
#
# Track frame offsets:
#	150
#	15085
#	28703
#	42914
#	56651
#	70456
#	83339
#	98210
#	113866
#	126766
#	139423
#	151151
#	167229
#	181499
#
# Disc length: 2622 seconds
#
# Revision: 1
# Processed by: cddbd v1.5.2PL0 Copyright (c) Steve Scherf et al.
# Submitted via: EZCDAudioConverter 1.2.3.1
#
DISCID=b30a3c0e
DTITLE=Billie Holiday - Summertime CD 
DYEAR=2005
DGENRE=Blues Oldies
TTITLE0=These foolish things
TTITLE1=What a little moonlight can do
TTITLE2=Nice work if you can get it
TTITLE3=Easy livin'
TTITLE4=On the sunny side of the street
TTITLE5=I gotta right to sing the blues
TTITLE6=Pennies from heaven
TTITLE7=That's life I guess
TTITLE8=A fine romance
TTITLE9=A sailboat in the moonlight
TTITLE10=Me, myself and I
TTITLE11=Do nothin' till you hear from me
TTITLE12=April in my heart
TTITLE13=Loverman
EXTD=
EXTT0=
EXTT1=
EXTT2=
EXTT3=
EXTT4=
EXTT5=
EXTT6=
EXTT7=
EXTT8=
EXTT9=
EXTT10=
EXTT11=
EXTT12=
EXTT13=
PLAYORDER=
